<svg xmlns="http://www.w3.org/2000/svg" xmlns:xlink="http://www.w3.org/1999/xlink" width="308" zoomAndPan="magnify" viewBox="0 0 230.87999 231" height="308" preserveAspectRatio="xMidYMid meet" version="1.0"><defs><clipPath id="05cf6eebbd"><path d="M 0 0.0585938 L 230.128906 0.0585938 L 230.128906 230.191406 L 0 230.191406 Z M 0 0.0585938 " clip-rule="nonzero"/></clipPath><clipPath id="a79450f561"><path d="M 115.136719 0.0585938 C 51.546875 0.0585938 0 51.609375 0 115.195312 C 0 178.78125 51.546875 230.332031 115.136719 230.332031 C 178.722656 230.332031 230.269531 178.78125 230.269531 115.195312 C 230.269531 51.609375 178.722656 0.0585938 115.136719 0.0585938 Z M 115.136719 0.0585938 " clip-rule="nonzero"/></clipPath></defs><g clip-path="url(#05cf6eebbd)"><g clip-path="url(#a79450f561)"><path stroke-linecap="butt" transform="matrix(0.74961, 0, 0, 0.74961, 0.000000000000021305, 0.060015)" fill="none" stroke-linejoin="miter" d="M 153.595428 -0.00189598 C 68.764895 -0.00189598 -0.000000000000028422 68.76821 -0.000000000000028422 153.593532 C -0.000000000000028422 238.418854 68.764895 307.18896 153.595428 307.18896 C 238.42075 307.18896 307.185645 238.418854 307.185645 153.593532 C 307.185645 68.76821 238.42075 -0.00189598 153.595428 -0.00189598 Z M 153.595428 -0.00189598 " stroke="#00c1bc" stroke-width="8" stroke-opacity="1" stroke-miterlimit="4"/></g></g><path fill="#00c1bc" d="M 158.828125 67.058594 C 84.382812 66.722656 44.414062 101.484375 40.996094 173.4375 C 40.953125 174.339844 39.628906 174.390625 39.503906 173.492188 C 36.179688 149.984375 36.824219 128.5625 42.789062 109.9375 C 62.484375 48.464844 137.605469 40.402344 190.90625 59.855469 C 193.5625 60.828125 194.097656 64.253906 191.890625 66.019531 C 150.316406 99.261719 155.972656 189.996094 54.777344 150.675781 C 70.582031 101.554688 102.988281 71.121094 158.828125 67.058594 " fill-opacity="1" fill-rule="evenodd"/></svg>