<svg width="356" height="108" viewBox="0 0 356 108" fill="none" xmlns="http://www.w3.org/2000/svg">
<circle cx="20.5" cy="79.8381" r="20.5" fill="#2C2B2B"/>
<path d="M30.7119 13.1026C37.9259 9.51993 46.654 11.3296 51.8489 17.485L96.6835 70.609C103.111 78.2244 102.078 89.6231 94.3874 95.9597C86.7603 102.244 75.4831 101.155 69.199 93.5282L24.9952 39.8781C17.8394 31.1931 20.6332 18.108 30.7119 13.1026Z" fill="#2C2B2B"/>
<rect x="97.7841" y="3" width="105.69" height="36" rx="18" transform="rotate(50.514 97.7841 3)" fill="#2C2B2B"/>
<path d="M184.399 70V36.4H190.399L201.775 58.768L213.103 36.4H219.103V70H214.015V45.184L203.743 65.2H199.807L189.487 45.232V70H184.399ZM236.875 70.576C234.539 70.576 232.459 70.064 230.635 69.04C228.843 67.984 227.435 66.528 226.411 64.672C225.387 62.816 224.875 60.656 224.875 58.192C224.875 55.696 225.371 53.504 226.363 51.616C227.387 49.728 228.795 48.256 230.587 47.2C232.411 46.144 234.523 45.616 236.923 45.616C239.259 45.616 241.291 46.144 243.019 47.2C244.747 48.224 246.091 49.6 247.051 51.328C248.011 53.056 248.491 54.96 248.491 57.04C248.491 57.36 248.475 57.712 248.443 58.096C248.443 58.448 248.427 58.848 248.395 59.296H229.867C230.027 61.6 230.779 63.36 232.123 64.576C233.499 65.76 235.083 66.352 236.875 66.352C238.315 66.352 239.515 66.032 240.475 65.392C241.467 64.72 242.203 63.824 242.683 62.704H247.771C247.131 64.944 245.851 66.816 243.931 68.32C242.043 69.824 239.691 70.576 236.875 70.576ZM236.875 49.792C235.179 49.792 233.675 50.304 232.363 51.328C231.051 52.32 230.251 53.824 229.963 55.84H243.403C243.307 53.984 242.651 52.512 241.435 51.424C240.219 50.336 238.699 49.792 236.875 49.792ZM253.77 70V46.192H258.282L258.666 50.368C259.402 48.896 260.474 47.744 261.882 46.912C263.322 46.048 264.97 45.616 266.826 45.616C269.706 45.616 271.962 46.512 273.594 48.304C275.258 50.096 276.09 52.768 276.09 56.32V70H271.05V56.848C271.05 52.24 269.162 49.936 265.386 49.936C263.498 49.936 261.93 50.608 260.682 51.952C259.466 53.296 258.858 55.216 258.858 57.712V70H253.77ZM292.066 70C289.73 70 287.874 69.44 286.498 68.32C285.122 67.168 284.434 65.136 284.434 62.224V50.464H280.354V46.192H284.434L285.058 40.144H289.522V46.192H296.242V50.464H289.522V62.224C289.522 63.536 289.794 64.448 290.338 64.96C290.914 65.44 291.89 65.68 293.266 65.68H296.002V70H292.066ZM304.369 41.68C303.409 41.68 302.609 41.392 301.969 40.816C301.361 40.208 301.057 39.456 301.057 38.56C301.057 37.664 301.361 36.928 301.969 36.352C302.609 35.744 303.409 35.44 304.369 35.44C305.329 35.44 306.113 35.744 306.721 36.352C307.361 36.928 307.681 37.664 307.681 38.56C307.681 39.456 307.361 40.208 306.721 40.816C306.113 41.392 305.329 41.68 304.369 41.68ZM301.825 70V46.192H306.913V70H301.825ZM314.829 70V50.464H311.421V46.192H314.829V42.736C314.829 40.144 315.469 38.288 316.749 37.168C318.061 36.016 319.901 35.44 322.269 35.44H324.765V39.76H323.037C321.917 39.76 321.117 40 320.637 40.48C320.157 40.928 319.917 41.696 319.917 42.784V46.192H325.389V50.464H319.917V70H314.829ZM333.007 80.56L338.719 68.032H337.327L327.919 46.192H333.439L340.735 63.808L348.367 46.192H353.743L338.383 80.56H333.007Z" fill="black"/>
</svg>
